<svg width="20" height="14" viewBox="0 0 20 14" fill="none" xmlns="http://www.w3.org/2000/svg">
<path d="M16.0001 7C16.0001 7.552 15.5531 8 15.0001 8H3.41413L6.7071 11.293C7.0981 11.684 7.0981 12.316 6.7071 12.707C6.5121 12.902 6.25607 13 6.00007 13C5.74407 13 5.48804 12.902 5.29304 12.707L0.294012 7.70801C0.201012 7.61501 0.127971 7.50508 0.0769707 7.38208C-0.0240293 7.13808 -0.0240293 6.86192 0.0769707 6.61792C0.127971 6.49492 0.201012 6.38499 0.294012 6.29199L5.29304 1.29297C5.68403 0.901969 6.3161 0.901969 6.7071 1.29297C7.0981 1.68397 7.0981 2.31603 6.7071 2.70703L3.41413 6H15.0001C15.5531 6 16.0001 6.448 16.0001 7ZM19.0001 0C18.4471 0 18.0001 0.448 18.0001 1V13C18.0001 13.552 18.4471 14 19.0001 14C19.5531 14 20.0001 13.552 20.0001 13V1C20.0001 0.448 19.5531 0 19.0001 0Z" fill="#25314C"/>
</svg>
