<svg width="68" height="76" viewBox="0 0 68 76" fill="none" xmlns="http://www.w3.org/2000/svg">
<path d="M17.3337 10.9167V6.75C17.3337 2.58333 19.417 0.5 23.5837 0.5H44.417C48.5837 0.5 50.667 2.58333 50.667 6.75V10.9167C50.667 15.0833 48.5837 17.1667 44.417 17.1667H23.5837C19.417 17.1667 17.3337 15.0833 17.3337 10.9167ZM67.3337 21.3333V63C67.3337 71.3333 63.167 75.5 54.8337 75.5H13.167C4.83366 75.5 0.666992 71.3333 0.666992 63V21.3333C0.666992 14.075 3.79988 9.98753 10.104 9.07086C10.6082 8.99586 11.0837 9.41244 11.0837 9.92078V10.9126C11.0837 18.4959 16.0003 23.4126 23.5837 23.4126H44.417C52.0003 23.4126 56.917 18.4959 56.917 10.9126V9.92078C56.917 9.41244 57.3966 8.99586 57.8966 9.07086C64.2008 9.98753 67.3337 14.075 67.3337 21.3333ZM38.4213 44.25L44.5462 38.1251C45.767 36.9043 45.767 34.925 44.5462 33.7041C43.3254 32.4833 41.346 32.4833 40.1252 33.7041L34.0003 39.8293L27.8755 33.7041C26.6546 32.4833 24.6753 32.4833 23.4545 33.7041C22.2336 34.925 22.2336 36.9043 23.4545 38.1251L29.5793 44.25L23.4545 50.3749C22.2336 51.5957 22.2336 53.575 23.4545 54.7959C24.0628 55.4042 24.8629 55.7124 25.6629 55.7124C26.4629 55.7124 27.263 55.4084 27.8714 54.7959L33.9963 48.6707L40.1211 54.7959C40.7295 55.4042 41.5296 55.7124 42.3296 55.7124C43.1296 55.7124 43.9297 55.4084 44.538 54.7959C45.7589 53.575 45.7589 51.5957 44.538 50.3749L38.4213 44.25Z" fill="#EF2C5B"/>
</svg>
