<svg width="100" height="100" viewBox="0 0 100 100" fill="none" xmlns="http://www.w3.org/2000/svg">
<path d="M33.3337 22.9167V18.75C33.3337 14.5833 35.417 12.5 39.5837 12.5H60.417C64.5837 12.5 66.667 14.5833 66.667 18.75V22.9167C66.667 27.0833 64.5837 29.1667 60.417 29.1667H39.5837C35.417 29.1667 33.3337 27.0833 33.3337 22.9167ZM83.3337 33.3333V75C83.3337 83.3333 79.167 87.5 70.8337 87.5H29.167C20.8337 87.5 16.667 83.3333 16.667 75V33.3333C16.667 26.075 19.7999 21.9875 26.104 21.0709C26.6082 20.9959 27.0837 21.4124 27.0837 21.9208V22.9126C27.0837 30.4959 32.0003 35.4126 39.5837 35.4126H60.417C68.0003 35.4126 72.917 30.4959 72.917 22.9126V21.9208C72.917 21.4124 73.3966 20.9959 73.8966 21.0709C80.2008 21.9875 83.3337 26.075 83.3337 33.3333ZM62.6255 46.3999C61.4046 45.1791 59.4253 45.1791 58.2045 46.3999L46.5254 58.0793L41.788 53.3457C40.5672 52.1249 38.5879 52.1249 37.3671 53.3457C36.1462 54.5666 36.1462 56.5459 37.3671 57.7667L44.3129 64.7125C44.9212 65.3209 45.7213 65.6291 46.5213 65.6291C47.3213 65.6291 48.1214 65.325 48.7298 64.7125L62.6173 50.825C63.8465 49.6 63.8463 47.6208 62.6255 46.3999Z" fill="#1FD11B"/>
</svg>
