<svg width="60" height="60" viewBox="0 0 60 60" fill="none" xmlns="http://www.w3.org/2000/svg">
<g style="mix-blend-mode:luminosity" clip-path="url(#clip0_6272_33349)">
<path d="M45.867 59.3263H13.3423C5.99075 59.3263 0.0297928 53.3431 0.0297928 45.9599V13.3039C0.0297928 5.92255 5.98889 -0.0625 13.3423 -0.0625H45.867C53.2186 -0.0625 59.1795 5.92068 59.1795 13.3039V45.9599C59.1795 53.3431 53.2186 59.3263 45.867 59.3263Z" fill="#8B8000"/>
<path d="M26.9937 23.218C27.1799 22.0834 27.3512 20.9489 27.4982 19.8143L28.7995 11.775C28.874 11.2442 28.6282 10.9844 28.0642 10.9844H20.5618C20.1075 10.9844 19.8488 11.2461 19.7668 11.775L15.6582 37.9021C15.5744 38.4311 15.9412 38.9264 16.4699 38.9975L23.5534 39.9526C23.9723 40.0087 24.3595 39.719 24.4247 39.2984L24.4786 38.9489C24.6052 38.1134 25.0073 37.3507 25.6087 36.7694C27.541 34.919 30.7319 35.6049 31.7353 38.0909L35.453 47.2947C35.6838 47.8255 35.9966 48.0853 36.4117 48.0853H45.2154C45.476 48.0853 45.6696 48.0031 45.7795 47.8311C45.8912 47.6592 45.9135 47.4872 45.839 47.2928L42.583 39.7302C39.906 33.4965 40.2113 26.5021 43.1937 20.6423C43.6088 19.8143 43.2383 18.7993 42.3764 18.4629L37.1638 16.433C36.2125 16.0591 35.1272 16.3133 34.4347 17.061L31.8991 19.8162C30.9999 20.8386 30.0784 21.9433 29.1327 23.1302C28.1963 24.3246 27.2897 25.4816 26.4259 26.6162" fill="#161616"/>
<path d="M23.2202 48.265L14.5152 47.093C13.7649 46.9921 13.2344 46.293 13.3349 45.5416L13.7407 42.5098C13.8413 41.7565 14.5375 41.2238 15.2859 41.3248L23.9909 42.4967C24.7411 42.5977 25.2717 43.2967 25.1712 44.0481L24.7653 47.0799C24.6667 47.8332 23.9704 48.3659 23.2202 48.265Z" fill="#161616"/>
</g>
<defs>
<clipPath id="clip0_6272_33349">
<rect width="59.2" height="60" fill="white"/>
</clipPath>
</defs>
</svg>
