<svg width="200" height="200" viewBox="0 0 200 200" fill="none" xmlns="http://www.w3.org/2000/svg">
<path fill-rule="evenodd" clip-rule="evenodd" d="M27.9999 77.9C28.2999 66.6 34.5999 57.7 45.2999 54.3C72.3999 45.6 61.8999 39.4 77.8999 26.4C102.7 6.2 110 44.7 136.7 36.8C153 32 181.9 46 170.6 68C157.7 93 171.5 98.5 168.1 120.5C164.2 146 146.4 145.3 134.6 149.9C122.2 154.7 118.7 176.3 99.4999 176C84.2999 175.7 84.6999 157.4 51.5999 159.5C33.1999 160.7 17.9999 139.8 25.2999 123.1C36.3999 97 27.5999 95.7 27.9999 77.9Z" fill="#F8F8F8"/>
<path d="M50.6 171C52.3 171.2 53.8 170.7 55.1 169.8C56.4 168.9 57.2 167.4 57.5 165.8C57.6 164.8 58.5 164.1 59.5 164.3C60.5 164.4 61.2 165.3 61.1 166.3C60.9 168 61.4 169.6 62.3 170.8C63.3 172.1 64.7 172.9 66.4 173.2C67.4 173.3 68.1 174.2 68 175.2C67.9 176.2 67 176.9 66 176.8C64.3 176.6 62.7 177 61.5 178C60.2 178.9 59.4 180.4 59.1 182C59 183 58 183.7 57 183.5C56 183.4 55.3 182.5 55.4 181.5C55.6 179.8 55.1 178.2 54.2 177C53.3 175.8 51.9 174.9 50.2 174.7H50.1C49.1 174.6 48.4 173.6 48.5 172.7C48.6 171.5 49.5 170.8 50.6 171Z" fill="#FFF5D8"/>
<path d="M47.4001 33.1C48.5001 33.2 49.7001 32.9 50.5001 32.3C51.4001 31.6 52.0001 30.6 52.2001 29.5C52.3001 28.8 52.9001 28.3 53.6001 28.4C54.3001 28.5 54.8001 29.1 54.7001 29.8C54.5001 31 54.9001 32.1 55.6001 32.9C56.3001 33.8 57.3001 34.4 58.4001 34.5C59.1001 34.6 59.6001 35.2 59.5001 35.9C59.4001 36.6 58.8001 37.1 58.1001 37C56.9001 36.8 55.8001 37.2 54.9001 37.8C54.0001 38.5 53.4001 39.4 53.2001 40.6C53.1001 41.3 52.5001 41.8 51.8001 41.7C51.1001 41.6 50.6001 41 50.7001 40.3C50.9001 39.1 50.5001 38 49.8001 37.2C49.1001 36.4 48.2001 35.7 47.0001 35.6C47.0001 35.6 47.0001 35.6 46.9001 35.6C46.2001 35.5 45.7001 34.9 45.8001 34.2C46.0001 33.5 46.6001 33 47.4001 33.1Z" fill="#FFF5D8"/>
<path d="M135.6 161.2C136.8 161.3 137.9 161 138.7 160.4C139.6 159.7 140.2 158.7 140.3 157.6C140.4 156.9 141 156.4 141.7 156.5C142.4 156.6 142.9 157.2 142.8 157.9C142.6 159.1 143 160.2 143.7 161C144.4 161.9 145.4 162.5 146.5 162.6C147.2 162.7 147.7 163.3 147.6 164C147.5 164.7 146.9 165.2 146.2 165.1C145 164.9 143.9 165.3 143 165.9C142.1 166.6 141.5 167.5 141.3 168.7C141.2 169.4 140.6 169.9 139.9 169.8C139.2 169.7 138.7 169.1 138.8 168.4C139 167.2 138.6 166.1 138 165.3C137.3 164.4 136.4 163.8 135.2 163.7C135.2 163.7 135.2 163.7 135.1 163.7C134.4 163.6 133.9 163 134 162.3C134.2 161.6 134.8 161.1 135.6 161.2Z" fill="#E6EDFF"/>
<path d="M174.5 82.9C175.9 83.1 177.2 82.7 178.2 81.9C179.3 81.1 180 79.9 180.2 78.5C180.3 77.7 181.1 77.1 181.9 77.2C182.7 77.3 183.3 78.1 183.2 78.9C183 80.3 183.4 81.6 184.2 82.7C185 83.7 186.2 84.5 187.6 84.7C188.4 84.8 189 85.6 188.9 86.4C188.8 87.2 188 87.8 187.2 87.7C185.8 87.5 184.4 87.9 183.4 88.7C182.4 89.5 181.6 90.7 181.4 92.1C181.3 92.9 180.5 93.5 179.7 93.4C178.9 93.3 178.3 92.5 178.4 91.7C178.6 90.3 178.2 89 177.4 87.9C176.6 86.9 175.4 86.2 174.1 85.9C174.1 85.9 174.1 85.9 174 85.9C173.2 85.8 172.6 85 172.7 84.2C172.8 83.3 173.6 82.8 174.5 82.9C174.4 82.9 174.4 82.9 174.5 82.9Z" fill="#FFF5D8"/>
<path d="M113.5 19.7C115 19.9 116.4 19.5 117.5 18.6C118.6 17.8 119.4 16.5 119.6 15C119.7 14.1 120.5 13.5 121.4 13.6C122.3 13.7 122.9 14.5 122.8 15.4C122.6 16.9 123 18.3 123.9 19.4C124.8 20.5 126 21.3 127.5 21.5C128.4 21.6 129 22.4 128.9 23.3C128.8 24.2 128 24.8 127.1 24.7C125.6 24.5 124.2 24.9 123 25.8C121.9 26.6 121.1 27.9 120.9 29.4C120.8 30.3 120 30.9 119.1 30.8C118.2 30.7 117.6 29.9 117.7 29C117.9 27.5 117.5 26.1 116.6 25C115.8 23.9 114.5 23.1 113 22.9H112.9C112 22.8 111.4 22 111.5 21.1C111.7 20.2 112.5 19.6 113.5 19.7C113.4 19.7 113.4 19.7 113.5 19.7Z" fill="#E6EDFF"/>
<path d="M12.9 108.6C13.9 108.7 14.9 108.4 15.6 107.9C16.4 107.3 16.9 106.5 17 105.5C17.1 104.9 17.6 104.5 18.2 104.6C18.8 104.7 19.2 105.2 19.1 105.8C19 106.8 19.3 107.8 19.8 108.5C20.4 109.3 21.3 109.8 22.3 109.9C22.9 110 23.3 110.5 23.3 111.1C23.2 111.7 22.7 112.1 22.1 112C21.1 111.9 20.1 112.2 19.3 112.7C18.5 113.3 18 114.1 17.9 115.1C17.8 115.7 17.3 116.1 16.7 116C16.1 115.9 15.7 115.4 15.7 114.8C15.8 113.8 15.5 112.8 15 112.1C14.4 111.4 13.6 110.8 12.6 110.7C12.6 110.7 12.6 110.7 12.5 110.7C11.9 110.6 11.5 110.1 11.5 109.5C11.7 108.9 12.3 108.5 12.9 108.6Z" fill="#E6EDFF"/>
<path d="M124.318 86.5937L105.131 73.804C102.023 71.732 97.9741 71.732 94.8691 73.804L75.6819 86.5937C73.5359 88.0243 72.25 90.4293 72.25 93.007V118.5C72.25 124.667 75.3333 127.75 81.5 127.75H118.5C124.667 127.75 127.75 124.667 127.75 118.5V93.007C127.75 90.4324 126.461 88.0243 124.318 86.5937ZM116.776 98.7852L102.642 109.065C101.726 109.728 100.654 110.061 99.5867 110.061C98.5137 110.061 97.4469 109.728 96.5343 109.065L82.4003 98.7852C81.3674 98.0328 81.1391 96.5868 81.8914 95.5538C82.6376 94.524 84.084 94.2897 85.1231 95.0451L99.257 105.325C99.4544 105.47 99.7196 105.47 99.9262 105.322L114.057 95.0451C115.099 94.2897 116.539 94.524 117.288 95.5538C118.04 96.5898 117.809 98.0359 116.776 98.7852Z" fill="#FFBF00"/>
</svg>
